<mxfile host="Electron" agent="Mozilla/5.0 (Windows NT 10.0; Win64; x64) AppleWebKit/537.36 (KHTML, like Gecko) draw.io/25.0.2 Chrome/128.0.6613.186 Electron/32.2.5 Safari/537.36" version="25.0.2">
  <diagram name="Page-1" id="Gx7tZq7WE6AWOUFHUE19">
    <mxGraphModel dx="2284" dy="836" grid="1" gridSize="10" guides="1" tooltips="1" connect="1" arrows="1" fold="1" page="1" pageScale="1" pageWidth="850" pageHeight="1100" math="0" shadow="0">
      <root>
        <mxCell id="0" />
        <mxCell id="1" parent="0" />
        <mxCell id="qoa65I4Ufe-KRU67U3g6-26" style="edgeStyle=orthogonalEdgeStyle;rounded=0;orthogonalLoop=1;jettySize=auto;html=1;endArrow=diamondThin;endFill=0;fontSize=17;" edge="1" parent="1" source="qoa65I4Ufe-KRU67U3g6-1" target="qoa65I4Ufe-KRU67U3g6-12">
          <mxGeometry relative="1" as="geometry" />
        </mxCell>
        <mxCell id="qoa65I4Ufe-KRU67U3g6-1" value="Tetromino" style="rounded=0;whiteSpace=wrap;html=1;fontFamily=Computer Modern;fontSize=17;" vertex="1" parent="1">
          <mxGeometry x="-200" y="40" width="120" height="60" as="geometry" />
        </mxCell>
        <mxCell id="qoa65I4Ufe-KRU67U3g6-20" style="edgeStyle=orthogonalEdgeStyle;rounded=0;orthogonalLoop=1;jettySize=auto;html=1;endArrow=diamondThin;endFill=1;fontSize=17;" edge="1" parent="1" source="qoa65I4Ufe-KRU67U3g6-2" target="qoa65I4Ufe-KRU67U3g6-3">
          <mxGeometry relative="1" as="geometry">
            <Array as="points">
              <mxPoint x="100" y="70" />
              <mxPoint x="100" y="150" />
            </Array>
          </mxGeometry>
        </mxCell>
        <mxCell id="qoa65I4Ufe-KRU67U3g6-2" value="Matrix" style="rounded=0;whiteSpace=wrap;html=1;fontFamily=Computer Modern;fontSize=17;" vertex="1" parent="1">
          <mxGeometry x="-40" y="40" width="120" height="60" as="geometry" />
        </mxCell>
        <mxCell id="qoa65I4Ufe-KRU67U3g6-16" style="edgeStyle=orthogonalEdgeStyle;rounded=0;orthogonalLoop=1;jettySize=auto;html=1;endArrow=diamondThin;endFill=1;fontSize=17;" edge="1" parent="1" source="qoa65I4Ufe-KRU67U3g6-3" target="qoa65I4Ufe-KRU67U3g6-4">
          <mxGeometry relative="1" as="geometry" />
        </mxCell>
        <mxCell id="qoa65I4Ufe-KRU67U3g6-3" value="GameController" style="rounded=0;whiteSpace=wrap;html=1;fontFamily=Computer Modern;fontSize=17;" vertex="1" parent="1">
          <mxGeometry x="120" y="120" width="120" height="60" as="geometry" />
        </mxCell>
        <mxCell id="qoa65I4Ufe-KRU67U3g6-15" style="edgeStyle=orthogonalEdgeStyle;rounded=0;orthogonalLoop=1;jettySize=auto;html=1;endArrow=diamondThin;endFill=1;fontSize=17;" edge="1" parent="1" source="qoa65I4Ufe-KRU67U3g6-4" target="qoa65I4Ufe-KRU67U3g6-10">
          <mxGeometry relative="1" as="geometry" />
        </mxCell>
        <mxCell id="qoa65I4Ufe-KRU67U3g6-4" value="GameManager" style="rounded=0;whiteSpace=wrap;html=1;fontFamily=Computer Modern;fontSize=17;" vertex="1" parent="1">
          <mxGeometry x="280" y="120" width="120" height="60" as="geometry" />
        </mxCell>
        <mxCell id="qoa65I4Ufe-KRU67U3g6-18" style="edgeStyle=orthogonalEdgeStyle;rounded=0;orthogonalLoop=1;jettySize=auto;html=1;endArrow=diamondThin;endFill=1;fontSize=17;" edge="1" parent="1" source="qoa65I4Ufe-KRU67U3g6-5" target="qoa65I4Ufe-KRU67U3g6-4">
          <mxGeometry relative="1" as="geometry">
            <Array as="points">
              <mxPoint x="260" y="230" />
              <mxPoint x="260" y="150" />
            </Array>
          </mxGeometry>
        </mxCell>
        <mxCell id="qoa65I4Ufe-KRU67U3g6-5" value="Bot" style="rounded=0;whiteSpace=wrap;html=1;fontFamily=Computer Modern;fontSize=17;" vertex="1" parent="1">
          <mxGeometry x="120" y="200" width="120" height="60" as="geometry" />
        </mxCell>
        <mxCell id="qoa65I4Ufe-KRU67U3g6-14" style="edgeStyle=orthogonalEdgeStyle;rounded=0;orthogonalLoop=1;jettySize=auto;html=1;endArrow=diamondThin;endFill=1;fontSize=17;" edge="1" parent="1" source="qoa65I4Ufe-KRU67U3g6-6" target="qoa65I4Ufe-KRU67U3g6-13">
          <mxGeometry relative="1" as="geometry" />
        </mxCell>
        <mxCell id="qoa65I4Ufe-KRU67U3g6-6" value="GarbageSystem" style="rounded=0;whiteSpace=wrap;html=1;fontFamily=Computer Modern;fontSize=17;" vertex="1" parent="1">
          <mxGeometry x="-200" y="280" width="120" height="60" as="geometry" />
        </mxCell>
        <mxCell id="qoa65I4Ufe-KRU67U3g6-21" style="edgeStyle=orthogonalEdgeStyle;rounded=0;orthogonalLoop=1;jettySize=auto;html=1;endArrow=diamondThin;endFill=1;fontSize=17;" edge="1" parent="1" source="qoa65I4Ufe-KRU67U3g6-7" target="qoa65I4Ufe-KRU67U3g6-3">
          <mxGeometry relative="1" as="geometry">
            <Array as="points">
              <mxPoint x="100" y="230" />
              <mxPoint x="100" y="150" />
            </Array>
          </mxGeometry>
        </mxCell>
        <mxCell id="qoa65I4Ufe-KRU67U3g6-7" value="Hold" style="rounded=0;whiteSpace=wrap;html=1;fontFamily=Computer Modern;fontSize=17;" vertex="1" parent="1">
          <mxGeometry x="-40" y="200" width="120" height="60" as="geometry" />
        </mxCell>
        <mxCell id="qoa65I4Ufe-KRU67U3g6-23" style="edgeStyle=orthogonalEdgeStyle;rounded=0;orthogonalLoop=1;jettySize=auto;html=1;endArrow=diamondThin;endFill=1;fontSize=17;" edge="1" parent="1" source="qoa65I4Ufe-KRU67U3g6-8" target="qoa65I4Ufe-KRU67U3g6-4">
          <mxGeometry relative="1" as="geometry">
            <Array as="points">
              <mxPoint x="260" y="310" />
              <mxPoint x="260" y="150" />
            </Array>
          </mxGeometry>
        </mxCell>
        <mxCell id="qoa65I4Ufe-KRU67U3g6-8" value="InputHandler" style="rounded=0;whiteSpace=wrap;html=1;fontFamily=Computer Modern;fontSize=17;" vertex="1" parent="1">
          <mxGeometry x="120" y="280" width="120" height="60" as="geometry" />
        </mxCell>
        <mxCell id="qoa65I4Ufe-KRU67U3g6-19" style="edgeStyle=orthogonalEdgeStyle;rounded=0;orthogonalLoop=1;jettySize=auto;html=1;endArrow=diamondThin;endFill=1;fontSize=17;" edge="1" parent="1" source="qoa65I4Ufe-KRU67U3g6-9" target="qoa65I4Ufe-KRU67U3g6-3">
          <mxGeometry relative="1" as="geometry" />
        </mxCell>
        <mxCell id="qoa65I4Ufe-KRU67U3g6-9" value="Lookahead" style="rounded=0;whiteSpace=wrap;html=1;fontFamily=Computer Modern;fontSize=17;" vertex="1" parent="1">
          <mxGeometry x="-40" y="120" width="120" height="60" as="geometry" />
        </mxCell>
        <mxCell id="qoa65I4Ufe-KRU67U3g6-10" value="Main" style="rounded=0;whiteSpace=wrap;html=1;fontFamily=Computer Modern;fontSize=17;" vertex="1" parent="1">
          <mxGeometry x="440" y="120" width="120" height="60" as="geometry" />
        </mxCell>
        <mxCell id="qoa65I4Ufe-KRU67U3g6-17" style="edgeStyle=orthogonalEdgeStyle;rounded=0;orthogonalLoop=1;jettySize=auto;html=1;endArrow=diamondThin;endFill=1;fontSize=17;" edge="1" parent="1" source="qoa65I4Ufe-KRU67U3g6-11" target="qoa65I4Ufe-KRU67U3g6-4">
          <mxGeometry relative="1" as="geometry">
            <Array as="points">
              <mxPoint x="260" y="70" />
              <mxPoint x="260" y="150" />
            </Array>
          </mxGeometry>
        </mxCell>
        <mxCell id="qoa65I4Ufe-KRU67U3g6-11" value="Renderer" style="rounded=0;whiteSpace=wrap;html=1;fontFamily=Computer Modern;fontSize=17;" vertex="1" parent="1">
          <mxGeometry x="120" y="40" width="120" height="60" as="geometry" />
        </mxCell>
        <mxCell id="qoa65I4Ufe-KRU67U3g6-24" style="edgeStyle=orthogonalEdgeStyle;rounded=0;orthogonalLoop=1;jettySize=auto;html=1;endArrow=diamondThin;endFill=1;fontSize=17;" edge="1" parent="1" source="qoa65I4Ufe-KRU67U3g6-12" target="qoa65I4Ufe-KRU67U3g6-9">
          <mxGeometry relative="1" as="geometry" />
        </mxCell>
        <mxCell id="qoa65I4Ufe-KRU67U3g6-12" value="SevenBag" style="rounded=0;whiteSpace=wrap;html=1;fontFamily=Computer Modern;fontSize=17;" vertex="1" parent="1">
          <mxGeometry x="-200" y="120" width="120" height="60" as="geometry" />
        </mxCell>
        <mxCell id="qoa65I4Ufe-KRU67U3g6-22" style="edgeStyle=orthogonalEdgeStyle;rounded=0;orthogonalLoop=1;jettySize=auto;html=1;endArrow=diamondThin;endFill=1;fontSize=17;" edge="1" parent="1" source="qoa65I4Ufe-KRU67U3g6-13" target="qoa65I4Ufe-KRU67U3g6-3">
          <mxGeometry relative="1" as="geometry">
            <Array as="points">
              <mxPoint x="100" y="310" />
              <mxPoint x="100" y="150" />
            </Array>
          </mxGeometry>
        </mxCell>
        <mxCell id="qoa65I4Ufe-KRU67U3g6-13" value="StoredAttack" style="rounded=0;whiteSpace=wrap;html=1;fontFamily=Computer Modern;fontSize=17;" vertex="1" parent="1">
          <mxGeometry x="-40" y="280" width="120" height="60" as="geometry" />
        </mxCell>
      </root>
    </mxGraphModel>
  </diagram>
</mxfile>
